HIERARCHY
ROOT Hips
{
	OFFSET 0.00000 0.00000 0.00000
	CHANNELS 6 Xposition Yposition Zposition Zrotation Yrotation Xrotation 
	JOINT LHipJoint
	{
		OFFSET 0 0 0
		CHANNELS 3 Zrotation Yrotation Xrotation
		JOINT LeftHip
		{
			OFFSET 1.62964 -1.40469 0.78906
			CHANNELS 3 Zrotation Yrotation Xrotation
			JOINT LeftKnee
			{
				OFFSET 2.29640 -6.30932 0.00000
				CHANNELS 3 Zrotation Yrotation Xrotation
				JOINT LeftAnkle
				{
					OFFSET 2.29451 -6.30412 0.00000
					CHANNELS 3 Zrotation Yrotation Xrotation
					JOINT LeftToe
					{
						OFFSET 0.03611 -0.09921 1.56387
						CHANNELS 3 Zrotation Yrotation Xrotation
						End Site
						{
							OFFSET 0.00000 -0.00000 0.80291
						}
					}
				}
			}
		}
	}
	JOINT RHipJoint
	{
		OFFSET 0 0 0
		CHANNELS 3 Zrotation Yrotation Xrotation
		JOINT RightHip
		{
			OFFSET -1.73712 -1.40469 0.78906
			CHANNELS 3 Zrotation Yrotation Xrotation
			JOINT RightKnee
			{
				OFFSET -2.28137 -6.26801 0.00000
				CHANNELS 3 Zrotation Yrotation Xrotation
				JOINT RightAnkle
				{
					OFFSET -2.28681 -6.28298 0.00000
					CHANNELS 3 Zrotation Yrotation Xrotation
					JOINT RightToe
					{
						OFFSET -0.15927 -0.43759 1.61103
						CHANNELS 3 Zrotation Yrotation Xrotation
						End Site
						{
							OFFSET -0.00000 -0.00000 0.84630
						}
					}
				}
			}
		}
	}
	JOINT lowerback
	{
		OFFSET 0 0 0
		CHANNELS 3 Zrotation Yrotation Xrotation
		JOINT Chest
		{
			OFFSET -0.04227 2.04338 -0.00225
			CHANNELS 3 Zrotation Yrotation Xrotation
			JOINT Chest2
			{
				OFFSET -0.02148 2.04482 -0.04273
				CHANNELS 3 Zrotation Yrotation Xrotation
				JOINT lowerneck
				{
					OFFSET 0 0 0
					CHANNELS 3 Zrotation Yrotation Xrotation
					JOINT Neck
					{
						OFFSET 0.09180 1.44629 0.19359
						CHANNELS 3 Zrotation Yrotation Xrotation
						JOINT Head
						{
							OFFSET 0.00887 1.40645 0.14750
							CHANNELS 3 Zrotation Yrotation Xrotation
							End Site
							{
								OFFSET -0.00669 1.50671 0.03707
							}
						}
					}
				}
				JOINT LeftCollar
				{
					OFFSET 0 0 0
					CHANNELS 3 Zrotation Yrotation Xrotation
					JOINT LeftShoulder
					{
						OFFSET 2.17674 1.86763 -0.06520
CHANNELS 3 Zrotation Xrotation Yrotation
						JOINT LeftElbow
						{
OFFSET 0 -4.657760 0.000000
CHANNELS 3 Zrotation Xrotation Yrotation
							JOINT LeftWrist
							{
OFFSET 0 -3.555390 0.000000
CHANNELS 3 Zrotation Xrotation Yrotation
								JOINT lhand
								{
									OFFSET 0 0 0
CHANNELS 3 Zrotation Xrotation Yrotation
									JOINT LFingers
									{
OFFSET 0 -0.707260 0.000000
CHANNELS 3 Zrotation Xrotation Yrotation
										End Site
										{
OFFSET 0 -0.570220 0.000000
										}
									}
								}
								JOINT LThumb
								{
OFFSET 0 0.000000 0.000000
CHANNELS 3 Zrotation Xrotation Yrotation
									End Site
									{
OFFSET 0 -0.578920 0.578920
									}
								}
							}
						}
					}
				}
				JOINT RightCollar
				{
					OFFSET 0 0 0
					CHANNELS 3 Zrotation Yrotation Xrotation
					JOINT RightShoulder
					{
						OFFSET -2.80694 1.55459 -0.32496
CHANNELS 3 Zrotation Xrotation Yrotation
						JOINT RightElbow
						{
OFFSET 0 -4.719250 -0.000000
CHANNELS 3 Zrotation Xrotation Yrotation
							JOINT RightWrist
							{
OFFSET 0 -3.569900 0.000000
CHANNELS 3 Zrotation Xrotation Yrotation
								JOINT rhand
								{
									OFFSET 0 0 0
CHANNELS 3 Zrotation Xrotation Yrotation
									JOINT RFingers
									{
OFFSET 0 -0.507760 0.000000
CHANNELS 3 Zrotation Xrotation Yrotation
										End Site
										{
OFFSET 0 -0.409370 0.000000
										}
									}
								}
								JOINT RThumb
								{
OFFSET 0 0.000000 0.000000
CHANNELS 3 Zrotation Xrotation Yrotation
									End Site
									{
OFFSET 0 -0.415620 0.415620
									}
								}
							}
						}
					}
				}
			}
		}
	}
}
MOTION
Frames: 10
Frame Time: 0.008333333333333333
-0.749696 17.792802 20.086758 184.103745 4.179920 -157.499224 0.000000 0.000000 0.000000 -14.407656 -18.950103 -21.238500 2.160444 9.192302 26.398856 1.383365 -1.509775 -21.799066 3.101466 -10.854132 -31.793129 0.000000 0.000000 0.000000 14.800318 9.054197 -52.392828 -8.581985 -16.531034 54.632771 -2.403863 0.952232 -29.098002 -3.763111 11.835650 -35.156607 -8.755570 -3.938070 -21.146278 -0.285440 -2.779348 1.126375 3.774561 -1.817079 13.680867 -3.399377 0.618336 -2.946332 3.047520 0.951801 8.337033 1.630010 0.545688 3.172125 0.000000 0.000000 0.000000 20.815683 3.810967 -19.308157 14.643891 -23.647699 3.081765 22.158579 -3.543800 12.483915 0.000000 0.000000 0.000000 -7.125000 0.000000 0.000000 -3.529643 16.551652 -2.382408 0.000000 0.000000 0.000000 -1.182525 10.118276 16.072050 -24.696591 -35.892165 -8.111402 -15.666833 2.329242 50.699732 0.000000 0.000000 0.000000 7.125000 0.000000 0.000000 56.096576 76.304901 -43.769387
-0.726984 17.785654 20.043489 184.427411 4.068667 -157.643394 0.000000 0.000000 0.000000 -14.046197 -18.836483 -21.055293 2.215995 9.302121 26.744974 1.425694 -1.794089 -22.065110 2.909451 -10.546639 -30.766017 0.000000 0.000000 0.000000 14.118638 8.885778 -53.025003 -8.459979 -16.447191 54.202854 -2.372552 0.703222 -28.976016 -3.597495 11.604573 -34.347201 -8.705672 -3.965456 -21.265828 -0.231605 -2.824035 1.122840 3.788559 -1.838724 13.752073 -3.493119 0.637112 -2.805593 3.436065 0.961015 8.539528 1.778229 0.567148 3.215617 0.000000 0.000000 0.000000 21.105272 3.966763 -19.534820 14.812212 -23.883785 3.149630 22.004513 -3.708656 12.460750 0.000000 0.000000 0.000000 -7.125000 0.000000 0.000000 -3.635455 16.591524 -2.451017 0.000000 0.000000 0.000000 -1.225515 10.314336 15.933234 -24.558025 -35.748830 -8.030267 -15.247977 1.986465 50.318849 0.000000 0.000000 0.000000 7.125000 0.000000 0.000000 54.962318 75.968427 -42.456688
-0.701755 17.776918 20.008322 184.700773 3.778221 -157.681564 0.000000 0.000000 0.000000 -13.631224 -18.783295 -21.094856 2.279600 9.425652 27.136024 1.437451 -1.994406 -22.109426 2.939183 -10.595780 -30.928572 0.000000 0.000000 0.000000 13.403336 8.588637 -53.756551 -8.319384 -16.349113 53.704921 -2.310729 0.051329 -28.789599 -3.575231 11.572596 -34.236200 -8.680655 -4.035690 -21.284033 -0.188343 -2.926099 1.037438 3.791298 -1.878164 13.677270 -3.532130 0.575984 -2.709329 3.741716 0.865563 8.743320 1.886701 0.535343 3.272401 0.000000 0.000000 0.000000 21.474079 4.170004 -19.841484 15.004657 -24.152542 3.227880 21.710198 -3.602950 12.166268 0.000000 0.000000 0.000000 -7.125000 0.000000 0.000000 -3.828410 16.933713 -2.552872 0.000000 0.000000 0.000000 -1.175897 10.620086 15.810523 -24.487433 -35.675524 -7.989112 -15.301145 2.259882 50.475711 0.000000 0.000000 0.000000 7.125000 0.000000 0.000000 55.497004 76.061764 -43.008581
-0.674081 17.766033 19.978188 184.881499 3.508850 -157.743793 0.000000 0.000000 0.000000 -13.322850 -18.707247 -21.115484 2.332950 9.527615 27.460193 1.454843 -2.086575 -22.224005 3.063516 -10.797079 -31.598633 0.000000 0.000000 0.000000 12.475592 8.408866 -54.453000 -8.159478 -16.235341 53.135104 -2.159976 -0.946088 -28.163416 -3.543503 11.526848 -34.077913 -8.810167 -4.118562 -21.213524 -0.142935 -3.015157 0.966293 3.890969 -1.923071 13.576784 -3.521447 0.468429 -2.718942 3.787563 0.717149 8.770193 1.895611 0.464221 3.289967 0.000000 0.000000 0.000000 21.841836 4.203870 -20.133556 15.130560 -24.327627 3.279560 22.060789 -3.962826 12.526226 0.000000 0.000000 0.000000 -7.125000 0.000000 0.000000 -3.599256 16.516191 -2.432347 0.000000 0.000000 0.000000 -1.129325 10.873186 15.555902 -24.411430 -35.596340 -7.944735 -15.252541 2.359849 50.546987 0.000000 0.000000 0.000000 7.125000 0.000000 0.000000 55.790920 76.075443 -43.275342
-0.645702 17.753211 19.932372 185.178093 3.290280 -158.045616 0.000000 0.000000 0.000000 -13.021771 -18.581350 -20.710653 2.362772 9.583896 27.639623 1.490762 -2.063633 -22.511137 3.170752 -10.966500 -32.167030 0.000000 0.000000 0.000000 11.618142 8.159620 -54.692791 -7.928154 -16.065841 52.303082 -2.000743 -1.245130 -27.222115 -2.930389 10.571738 -30.858332 -8.830169 -4.128196 -21.069668 -0.090591 -3.050428 0.994089 3.954107 -1.945791 13.536092 -3.414598 0.377184 -2.806992 3.745412 0.592643 8.819889 1.859867 0.404844 3.328590 0.000000 0.000000 0.000000 22.203278 4.186645 -20.476986 15.276122 -24.529310 3.339806 22.073363 -4.265219 12.547674 0.000000 0.000000 0.000000 -7.125000 0.000000 0.000000 -3.591433 16.492024 -2.428995 0.000000 0.000000 0.000000 -1.140290 11.188345 15.379018 -24.402198 -35.586673 -7.939334 -15.001138 2.052228 50.430604 0.000000 0.000000 0.000000 7.125000 0.000000 0.000000 55.534649 75.923439 -42.904333
-0.611719 17.743826 19.896701 185.520043 3.017095 -158.221509 0.000000 0.000000 0.000000 -12.514346 -18.305314 -20.747771 2.450750 9.747389 28.162949 1.528625 -2.453433 -22.713881 3.203058 -11.016758 -32.336469 0.000000 0.000000 0.000000 10.792791 8.009672 -55.000138 -7.663138 -15.865141 51.338999 -1.843683 -1.450425 -26.223633 -2.319830 9.500554 -27.375712 -8.845330 -4.179880 -20.864131 -0.009111 -3.152204 0.933971 4.030537 -1.991205 13.367906 -3.469233 0.355336 -2.797563 3.933814 0.558218 8.992294 1.935016 0.397722 3.389302 0.000000 0.000000 0.000000 22.565184 4.274632 -20.808775 15.461248 -24.784631 3.417046 22.080561 -4.692076 12.757065 0.000000 0.000000 0.000000 -7.125000 0.000000 0.000000 -3.595674 16.267682 -2.449174 0.000000 0.000000 0.000000 -1.203559 11.510162 15.482357 -24.344368 -35.526188 -7.905788 -14.958800 2.141701 50.626605 0.000000 0.000000 0.000000 7.125000 0.000000 0.000000 56.282944 75.995455 -43.622260
-0.578744 17.736245 19.865907 185.857830 2.668423 -158.349541 0.000000 0.000000 0.000000 -11.950244 -18.286907 -20.837562 2.550245 9.928462 28.745659 1.564146 -2.761096 -22.917970 3.168240 -10.961936 -32.152207 0.000000 0.000000 0.000000 9.891156 7.932299 -55.297421 -7.369165 -15.634097 50.255487 -1.608855 -2.381147 -24.915144 -2.178544 9.228445 -26.512675 -8.857252 -4.267909 -20.582524 0.085509 -3.311506 0.807002 4.106529 -2.056056 13.087715 -3.592828 0.355398 -2.709632 4.235095 0.551701 9.240663 2.062701 0.409314 3.461258 0.000000 0.000000 0.000000 22.927381 4.482014 -21.139161 15.645650 -25.037666 3.494729 22.318648 -5.339462 13.549090 0.000000 0.000000 0.000000 -7.125000 0.000000 0.000000 -3.469950 15.396489 -2.427371 0.000000 0.000000 0.000000 -1.237879 11.788336 15.528657 -24.168564 -35.341889 -7.803899 -15.164306 2.651747 50.982669 0.000000 0.000000 0.000000 7.125000 0.000000 0.000000 57.473986 76.230965 -44.893093
-0.546798 17.721841 19.819222 186.276681 2.355352 -158.437684 0.000000 0.000000 0.000000 -11.366461 -18.399925 -20.686301 2.605528 10.027219 29.064924 1.596555 -2.952700 -23.122778 3.021669 -10.729435 -31.373394 0.000000 0.000000 0.000000 9.039447 7.880537 -55.525172 -7.049221 -15.371958 49.058156 -1.359375 -3.455460 -23.502083 -2.153273 9.178071 -26.354142 -8.711444 -4.323121 -20.810055 0.135448 -3.403987 0.838639 4.039508 -2.096727 13.262614 -3.601642 0.368499 -2.708446 4.561947 0.554674 9.489551 2.180447 0.431614 3.549667 0.000000 0.000000 0.000000 23.392972 4.513695 -21.519308 15.833393 -25.294092 3.574542 22.395125 -5.897162 14.126647 0.000000 0.000000 0.000000 -7.125000 0.000000 0.000000 -3.446139 14.771620 -2.458074 0.000000 0.000000 0.000000 -1.150841 11.886784 15.314711 -24.000719 -35.164900 -7.706964 -14.579537 2.677971 51.525463 0.000000 0.000000 0.000000 7.125000 0.000000 0.000000 59.879325 76.221185 -46.998346
-0.515545 17.706385 19.765787 186.698930 2.107201 -158.566329 0.000000 0.000000 0.000000 -10.852880 -18.415167 -20.418454 2.658146 10.119747 29.365482 1.634945 -3.123847 -23.375128 2.992828 -10.683364 -31.219285 0.000000 0.000000 0.000000 8.212282 7.725118 -55.593948 -6.692805 -15.066323 47.700324 -1.179824 -4.224931 -22.439089 -1.998634 8.860987 -25.362983 -8.578449 -4.319651 -21.022108 0.189275 -3.416752 0.830779 4.013233 -2.098252 13.371008 -3.660296 0.277110 -2.587984 4.895142 0.418149 9.711110 2.303299 0.383403 3.613339 0.000000 0.000000 0.000000 23.795233 4.498198 -22.012669 16.087019 -25.638217 3.683663 21.904502 -6.040890 13.497886 0.000000 0.000000 0.000000 -7.125000 0.000000 0.000000 -3.751329 15.494783 -2.617054 0.000000 0.000000 0.000000 -1.101291 12.260445 15.073317 -23.967915 -35.130257 -7.688052 -13.916549 2.420134 52.032459 0.000000 0.000000 0.000000 7.125000 0.000000 0.000000 62.193379 76.153322 -48.982242
-0.477602 17.699153 19.716333 186.990730 1.583917 -158.980092 0.000000 0.000000 0.000000 -10.447679 -18.509983 -19.931217 2.727944 10.240956 29.760623 1.661662 -3.453041 -23.510048 2.931198 -10.582656 -30.885253 0.000000 0.000000 0.000000 7.354887 7.323394 -55.113448 -6.250526 -14.665331 45.976364 -1.011031 -5.227488 -21.568150 -1.875490 8.601458 -24.556596 -8.708164 -4.399055 -20.684351 0.271029 -3.541594 0.824324 4.151005 -2.166349 13.202844 -3.684046 0.153487 -2.524137 5.087818 0.245246 9.911731 2.370999 0.311715 3.681929 0.000000 0.000000 0.000000 24.163714 4.521486 -22.508636 16.506022 -26.201503 3.866871 21.079719 -6.481989 12.456869 0.000000 0.000000 0.000000 -7.125000 0.000000 0.000000 -4.277963 16.683428 -2.876311 0.000000 0.000000 0.000000 -1.103633 12.706119 14.999912 -23.874837 -35.031546 -7.634543 -14.064858 2.400693 51.814770 0.000000 0.000000 0.000000 7.125000 0.000000 0.000000 61.279084 76.132249 -48.144600
